<?xml version="1.0" encoding="iso-8859-1"?>
<!-- Generator: Adobe Illustrator 19.0.0, SVG Export Plug-In . SVG Version: 6.00 Build 0)  -->
<svg version="1.1" id="Capa_1" xmlns="http://www.w3.org/2000/svg" xmlns:xlink="http://www.w3.org/1999/xlink" x="0px" y="0px"
	 viewBox="0 0 512 512" style="enable-background:new 0 0 512 512;" xml:space="preserve">
<path style="fill:#EDF2FA;" d="M281.532,495.309L281.532,495.309C389.7,435.028,456.748,320.905,456.748,197.075v-74.028
	c0-36.262-21.642-69.023-54.994-83.254l0,0c-93.109-39.725-198.4-39.725-291.509,0l0,0c-33.353,14.23-54.994,46.992-54.994,83.254
	v74.028c0,123.83,67.048,237.954,175.216,298.234l0,0C246.34,504.155,265.66,504.155,281.532,495.309z"/>
<g>
	<polygon style="fill:#686C83;" points="255.763,306.909 231.047,326.992 145.002,326.992 117.66,274.218 160.296,290.844 
		220.542,290.844 255.763,260.375 290.984,290.844 351.23,290.844 393.866,274.218 366.523,326.992 280.479,326.992 	"/>
	<polygon style="fill:#686C83;" points="229.295,383.957 282.704,383.957 256,461.948 	"/>
	<polygon style="fill:#686C83;" points="304.042,177.918 402.983,177.918 348.819,140.275 	"/>
	<polygon style="fill:#686C83;" points="207.957,177.918 109.017,177.918 163.182,140.275 	"/>
</g>
<path d="M383.724,408.342c-4.237-3.541-10.544-2.977-14.083,1.263c-26.097,31.235-57.379,57.134-92.975,76.97
	c-12.94,7.212-28.391,7.212-41.33,0C130.422,428.108,65.25,317.178,65.25,197.075c0-5.521-4.477-9.999-9.999-9.999
	s-9.999,4.477-9.999,9.999c0,127.351,69.105,244.974,180.348,306.969c9.519,5.304,19.958,7.957,30.4,7.956
	c10.44-0.001,20.884-2.653,30.401-7.956c37.744-21.036,70.913-48.496,98.586-81.619
	C388.527,418.187,387.961,411.882,383.724,408.342z"/>
<path d="M55.252,172.98c2.63,0,5.209-1.07,7.069-2.931c1.86-1.859,2.93-4.438,2.93-7.068c0-2.63-1.069-5.209-2.93-7.069
	c-1.861-1.86-4.439-2.93-7.069-2.93c-2.63,0-5.209,1.069-7.068,2.93c-1.86,1.86-2.931,4.439-2.931,7.069
	c0,2.63,1.07,5.209,2.931,7.068C50.042,171.911,52.622,172.98,55.252,172.98z"/>
<path d="M405.678,30.596C358.093,10.294,307.734,0,256,0c-51.735,0-102.093,10.295-149.678,30.597
	c-37.099,15.828-61.069,52.117-61.069,92.451c0,5.521,4.477,9.999,9.999,9.999s9.999-4.477,9.999-9.999
	c0-32.309,19.202-61.378,48.918-74.057c90.136-38.457,193.527-38.458,283.663,0.001c29.717,12.679,48.918,41.747,48.918,74.056
	v74.028c0,50.079-11.603,100.327-33.552,145.309c-2.422,4.963-0.361,10.95,4.601,13.371c1.412,0.688,2.906,1.015,4.377,1.015
	c3.703,0,7.261-2.064,8.994-5.615c23.274-47.699,35.577-100.979,35.577-154.08v-74.028
	C466.747,82.714,442.777,46.425,405.678,30.596z"/>
<path d="M409.892,369.986c-4.683-2.933-10.851-1.516-13.782,3.163l-0.275,0.439c-2.933,4.68-1.517,10.851,3.163,13.782
	c1.651,1.034,3.487,1.527,5.3,1.527c3.329,0,6.584-1.662,8.482-4.689l0.275-0.439C415.987,379.089,414.571,372.919,409.892,369.986z
	"/>
<path d="M249.221,252.813l-32.403,28.032h-54.64l-40.885-15.942c-3.878-1.514-8.286-0.466-11.068,2.631
	c-2.782,3.095-3.357,7.589-1.442,11.285l27.343,52.773c1.719,3.316,5.142,5.398,8.878,5.398h86.045c2.297,0,4.522-0.791,6.305-2.239
	l18.411-14.958l18.412,14.959c1.782,1.448,4.009,2.238,6.305,2.238h86.044c3.736,0,7.159-2.083,8.878-5.398l27.343-52.773
	c1.915-3.696,1.34-8.19-1.442-11.285c-2.784-3.096-7.194-4.144-11.068-2.631l-40.884,15.942h-54.64l-32.405-28.032
	C258.549,249.564,252.977,249.564,249.221,252.813z M290.984,300.843h60.246c1.243,0,2.475-0.231,3.633-0.684l17.923-6.988
	l-12.343,23.821H284.03l-21.962-17.844c-3.674-2.984-8.937-2.985-12.61,0.001l-21.962,17.843h-76.414l-12.343-23.821l17.924,6.988
	c1.158,0.452,2.39,0.684,3.633,0.684h60.246c2.403,0,4.725-0.865,6.542-2.438l28.679-24.81l28.681,24.81
	C286.26,299.978,288.582,300.843,290.984,300.843z"/>
<path d="M282.704,373.958h-53.408c-3.229,0-6.258,1.559-8.135,4.186c-1.878,2.627-2.371,5.998-1.325,9.053l26.704,77.991
	c1.385,4.044,5.186,6.76,9.46,6.76c4.273,0,8.075-2.717,9.46-6.76l26.704-77.991c1.046-3.055,0.553-6.426-1.325-9.053
	C288.962,375.516,285.932,373.958,282.704,373.958z M256,431.081l-12.712-37.126h25.423L256,431.081z"/>
<path d="M236.249,110.078L183.614,76.45c-2.196-1.404-4.853-1.891-7.404-1.367l-57.761,11.925
	c-5.408,1.117-8.888,6.406-7.771,11.814c1.117,5.408,6.407,8.888,11.814,7.771l53.781-11.103l49.21,31.438
	c1.668,1.065,3.531,1.574,5.373,1.574c3.299,0,6.528-1.631,8.436-4.616C242.265,119.232,240.903,113.05,236.249,110.078z"/>
<path d="M393.55,87.008l-57.761-11.925c-2.55-0.523-5.209-0.037-7.404,1.367l-52.635,33.627c-4.653,2.973-6.016,9.155-3.043,13.809
	c1.907,2.986,5.136,4.616,8.436,4.616c1.842,0,3.706-0.509,5.373-1.574l49.21-31.438l53.781,11.103
	c5.397,1.113,10.696-2.361,11.814-7.771C402.438,93.414,398.959,88.125,393.55,87.008z"/>
<path d="M342.384,132.622l-44.776,37.642c-3.217,2.704-4.398,7.13-2.961,11.078c1.439,3.948,5.192,6.574,9.395,6.574h98.941
	c4.37,0,8.234-2.839,9.541-7.009c1.308-4.171-0.246-8.707-3.835-11.201l-54.165-37.642
	C350.816,129.487,345.84,129.714,342.384,132.622z M331.474,167.919l17.921-15.065l21.68,15.065H331.474z"/>
<path d="M99.476,180.908c1.307,4.171,5.17,7.009,9.541,7.009h98.941c4.202,0,7.955-2.627,9.395-6.574
	c1.438-3.948,0.256-8.374-2.961-11.078l-44.776-37.642c-3.456-2.908-8.433-3.135-12.141-0.558l-54.165,37.642
	C99.722,172.201,98.168,176.737,99.476,180.908z M162.605,152.853l17.921,15.065h-39.6L162.605,152.853z"/>
<g>
</g>
<g>
</g>
<g>
</g>
<g>
</g>
<g>
</g>
<g>
</g>
<g>
</g>
<g>
</g>
<g>
</g>
<g>
</g>
<g>
</g>
<g>
</g>
<g>
</g>
<g>
</g>
<g>
</g>
</svg>
