<?xml version="1.0" encoding="iso-8859-1"?>
<!-- Generator: Adobe Illustrator 19.0.0, SVG Export Plug-In . SVG Version: 6.00 Build 0)  -->
<svg version="1.1" id="Capa_1" xmlns="http://www.w3.org/2000/svg" xmlns:xlink="http://www.w3.org/1999/xlink" x="0px" y="0px"
	 viewBox="0 0 512 512" style="enable-background:new 0 0 512 512;" xml:space="preserve">
<g>
	<g>
		<path d="M383.724,408.342c-4.237-3.541-10.544-2.977-14.083,1.263c-26.097,31.235-57.378,57.134-92.975,76.97
			c-12.94,7.212-28.391,7.212-41.33,0C130.422,428.108,65.25,317.178,65.25,197.075c0-5.521-4.478-9.999-9.999-9.999
			s-9.999,4.477-9.999,9.999c0,127.351,69.105,244.974,180.348,306.969c9.519,5.304,19.958,7.957,30.4,7.956
			c10.44-0.001,20.884-2.653,30.401-7.956c37.744-21.036,70.913-48.495,98.586-81.619
			C388.527,418.187,387.961,411.882,383.724,408.342z"/>
	</g>
</g>
<g>
	<g>
		<path d="M62.321,155.912c-1.861-1.86-4.439-2.93-7.069-2.93c-2.63,0-5.209,1.069-7.068,2.93c-1.86,1.86-2.931,4.439-2.931,7.069
			c0,2.63,1.07,5.209,2.931,7.068c1.859,1.861,4.438,2.931,7.068,2.931c2.63,0,5.209-1.07,7.069-2.931
			c1.86-1.859,2.93-4.438,2.93-7.068C65.251,160.352,64.182,157.772,62.321,155.912z"/>
	</g>
</g>
<g>
	<g>
		<path d="M405.678,30.596C358.093,10.294,307.734,0,256,0c-51.735,0-102.093,10.295-149.678,30.597
			c-37.099,15.828-61.069,52.117-61.069,92.451c0,5.521,4.477,9.999,9.999,9.999s9.999-4.478,9.999-9.999
			c0-32.309,19.202-61.378,48.918-74.057c90.136-38.457,193.527-38.458,283.663,0.001c29.717,12.679,48.918,41.747,48.918,74.056
			v74.028c0,50.079-11.603,100.327-33.552,145.309c-2.422,4.963-0.361,10.95,4.602,13.371c1.412,0.688,2.906,1.015,4.378,1.015
			c3.703,0,7.261-2.064,8.994-5.615c23.274-47.699,35.577-100.979,35.577-154.08v-74.028
			C466.747,82.714,442.777,46.425,405.678,30.596z"/>
	</g>
</g>
<g>
	<g>
		<path d="M409.892,369.986c-4.683-2.933-10.851-1.516-13.782,3.163l-0.275,0.439c-2.933,4.68-1.517,10.851,3.163,13.782
			c1.651,1.034,3.487,1.527,5.3,1.527c3.329,0,6.584-1.662,8.482-4.689l0.275-0.439
			C415.987,379.089,414.571,372.919,409.892,369.986z"/>
	</g>
</g>
<g>
	<g>
		<path d="M401.306,267.534c-2.784-3.096-7.194-4.144-11.068-2.631l-40.884,15.942h-54.64l-32.405-28.032
			c-3.76-3.25-9.331-3.25-13.088,0l-32.403,28.032h-54.64l-40.885-15.942c-3.878-1.514-8.286-0.466-11.068,2.631
			c-2.782,3.095-3.357,7.589-1.442,11.285l27.343,52.773c1.719,3.316,5.142,5.398,8.878,5.398h86.045
			c2.297,0,4.522-0.791,6.305-2.239l18.411-14.958l18.412,14.959c1.782,1.448,4.009,2.238,6.305,2.238h86.044
			c3.736,0,7.159-2.083,8.878-5.398l27.343-52.773C404.662,275.123,404.087,270.628,401.306,267.534z M360.443,316.992H284.03
			l-21.962-17.844c-3.674-2.984-8.937-2.985-12.61,0.001l-21.962,17.843h-76.414l-12.343-23.821l17.924,6.988
			c1.158,0.452,2.39,0.684,3.633,0.684h60.246c2.403,0,4.725-0.865,6.542-2.438l28.679-24.81l28.681,24.81
			c1.816,1.573,4.138,2.438,6.54,2.438h60.246c1.243,0,2.475-0.231,3.633-0.684l17.923-6.988L360.443,316.992z"/>
	</g>
</g>
<g>
	<g>
		<path d="M290.839,378.143c-1.877-2.627-4.907-4.186-8.135-4.186h-53.408c-3.229,0-6.258,1.559-8.135,4.186
			c-1.878,2.627-2.371,5.998-1.325,9.053l26.704,77.991c1.385,4.044,5.186,6.76,9.46,6.76s8.075-2.717,9.46-6.76l26.704-77.991
			C293.21,384.141,292.717,380.77,290.839,378.143z M256,431.081l-12.712-37.126h25.423L256,431.081z"/>
	</g>
</g>
<g>
	<g>
		<path d="M236.249,110.078L183.614,76.45c-2.196-1.404-4.853-1.891-7.404-1.367l-57.761,11.925
			c-5.408,1.117-8.888,6.406-7.771,11.814c1.117,5.408,6.407,8.888,11.814,7.771l53.781-11.103l49.21,31.438
			c1.668,1.065,3.531,1.574,5.373,1.574c3.299,0,6.528-1.631,8.436-4.616C242.265,119.232,240.903,113.05,236.249,110.078z"/>
	</g>
</g>
<g>
	<g>
		<path d="M393.55,87.008l-57.761-11.925c-2.55-0.523-5.209-0.037-7.404,1.367l-52.635,33.627
			c-4.653,2.973-6.016,9.155-3.043,13.809c1.907,2.986,5.136,4.616,8.436,4.616c1.842,0,3.706-0.509,5.373-1.574l49.21-31.438
			l53.781,11.103c5.397,1.113,10.696-2.361,11.814-7.771C402.438,93.414,398.959,88.125,393.55,87.008z"/>
	</g>
</g>
<g>
	<g>
		<path d="M408.69,169.706l-54.165-37.642c-3.709-2.577-8.685-2.35-12.141,0.558l-44.776,37.642
			c-3.217,2.704-4.398,7.13-2.961,11.078c1.439,3.948,5.192,6.574,9.395,6.574h98.941c4.371,0,8.234-2.839,9.541-7.009
			C413.832,176.736,412.278,172.199,408.69,169.706z M331.474,167.919l17.921-15.065l21.68,15.065H331.474z"/>
	</g>
</g>
<g>
	<g>
		<path d="M214.392,170.265l-44.776-37.642c-3.456-2.908-8.433-3.135-12.141-0.558l-54.165,37.642
			c-3.589,2.494-5.142,7.03-3.835,11.201c1.307,4.171,5.17,7.009,9.541,7.009h98.941c4.202,0,7.955-2.627,9.395-6.574
			C218.79,177.395,217.608,172.968,214.392,170.265z M140.926,167.918l21.679-15.065l17.921,15.065H140.926z"/>
	</g>
</g>
<g>
</g>
<g>
</g>
<g>
</g>
<g>
</g>
<g>
</g>
<g>
</g>
<g>
</g>
<g>
</g>
<g>
</g>
<g>
</g>
<g>
</g>
<g>
</g>
<g>
</g>
<g>
</g>
<g>
</g>
</svg>
